# xmcd
#
# Track frame offsets:
#	150
#	12773
#	23716
#	35154
#	44177
#	57692
#	66842
#	77792
#	86740
#	98725
#	109435
#	121353
#
# Disc length: 1746 seconds
#
# Revision: 1
# Processed by: cddbd v1.5.2PL0 Copyright (c) Steve Scherf et al.
# Submitted via: audiograbber 1.83.01
#
DISCID=aa06d00c
DTITLE=Marty Robbins - Devil Woman
DYEAR=1962
DGENRE=Country
TTITLE0=Devil Woman
TTITLE1=Ain't Life A Crying Shame
TTITLE2=Time Can't Make Me Forget
TTITLE3=In The Ashes Of An Old Love Affair
TTITLE4=The Hands You're Holding Now
TTITLE5=Worried
TTITLE6=Little Rich Girl
TTITLE7=Progressive Love
TTITLE8=I'm Beginning To Forget
TTITLE9=Love Is A Hurting Thing
TTITLE10=Kinda Halfway Feel
TTITLE11=The Wine Flowed Freely
EXTD=
EXTT0=
EXTT1=
EXTT2=
EXTT3=
EXTT4=
EXTT5=
EXTT6=
EXTT7=
EXTT8=
EXTT9=
EXTT10=
EXTT11=
PLAYORDER=
